<mxfile host="65bd71144e">
    <diagram id="xWfoWE9kqPovVAwYkWkn" name="Page-1">
        <mxGraphModel dx="997" dy="615" grid="1" gridSize="10" guides="1" tooltips="1" connect="1" arrows="1" fold="1" page="1" pageScale="1" pageWidth="1200" pageHeight="1600" math="0" shadow="0">
            <root>
                <mxCell id="0"/>
                <mxCell id="1" parent="0"/>
                <mxCell id="45" value="" style="rounded=0;whiteSpace=wrap;html=1;" vertex="1" parent="1">
                    <mxGeometry x="180" width="640" height="620" as="geometry"/>
                </mxCell>
                <mxCell id="29" value="" style="rounded=0;whiteSpace=wrap;html=1;" parent="1" vertex="1">
                    <mxGeometry x="300" y="26" width="405" height="560" as="geometry"/>
                </mxCell>
                <mxCell id="2" value="Player" style="shape=umlActor;verticalLabelPosition=bottom;verticalAlign=top;html=1;" parent="1" vertex="1">
                    <mxGeometry x="770" y="227" width="30" height="60" as="geometry"/>
                </mxCell>
                <mxCell id="5" value="move left" style="ellipse;" parent="1" vertex="1">
                    <mxGeometry x="560" y="246" width="90" height="51" as="geometry"/>
                </mxCell>
                <mxCell id="6" value="move right" style="ellipse;" parent="1" vertex="1">
                    <mxGeometry x="560" y="306" width="95" height="60" as="geometry"/>
                </mxCell>
                <mxCell id="7" value="jump" style="ellipse;" parent="1" vertex="1">
                    <mxGeometry x="545" y="376" width="110" height="60" as="geometry"/>
                </mxCell>
                <mxCell id="8" value="climb up stairs" style="ellipse;" parent="1" vertex="1">
                    <mxGeometry x="540" y="446" width="110" height="60" as="geometry"/>
                </mxCell>
                <mxCell id="9" value="climb down stairs" style="ellipse;" parent="1" vertex="1">
                    <mxGeometry x="545" y="516" width="110" height="60" as="geometry"/>
                </mxCell>
                <mxCell id="12" value="pause the game" style="ellipse;" parent="1" vertex="1">
                    <mxGeometry x="545" y="46" width="110" height="60" as="geometry"/>
                </mxCell>
                <mxCell id="13" value="Computer" style="shape=umlActor;verticalLabelPosition=bottom;verticalAlign=top;html=1;outlineConnect=0;" parent="1" vertex="1">
                    <mxGeometry x="224" y="287" width="30" height="59" as="geometry"/>
                </mxCell>
                <mxCell id="17" value="" style="endArrow=none;html=1;entryX=0.5;entryY=0.5;entryDx=0;entryDy=0;entryPerimeter=0;exitX=1;exitY=0.5;exitDx=0;exitDy=0;" parent="1" source="7" target="2" edge="1">
                    <mxGeometry width="50" height="50" relative="1" as="geometry">
                        <mxPoint x="655" y="337" as="sourcePoint"/>
                        <mxPoint x="705" y="287" as="targetPoint"/>
                    </mxGeometry>
                </mxCell>
                <mxCell id="18" value="" style="endArrow=none;html=1;entryX=0.5;entryY=0.5;entryDx=0;entryDy=0;entryPerimeter=0;exitX=1;exitY=0.5;exitDx=0;exitDy=0;" parent="1" source="6" target="2" edge="1">
                    <mxGeometry width="50" height="50" relative="1" as="geometry">
                        <mxPoint x="655" y="256" as="sourcePoint"/>
                        <mxPoint x="780" y="266" as="targetPoint"/>
                    </mxGeometry>
                </mxCell>
                <mxCell id="19" value="" style="endArrow=none;html=1;entryX=0.5;entryY=0.5;entryDx=0;entryDy=0;entryPerimeter=0;exitX=1;exitY=0.4;exitDx=0;exitDy=0;exitPerimeter=0;" parent="1" source="8" target="2" edge="1">
                    <mxGeometry width="50" height="50" relative="1" as="geometry">
                        <mxPoint x="655" y="406" as="sourcePoint"/>
                        <mxPoint x="705" y="356" as="targetPoint"/>
                    </mxGeometry>
                </mxCell>
                <mxCell id="20" value="" style="endArrow=none;html=1;exitX=1;exitY=0.5;exitDx=0;exitDy=0;" parent="1" source="5" edge="1">
                    <mxGeometry width="50" height="50" relative="1" as="geometry">
                        <mxPoint x="600" y="326" as="sourcePoint"/>
                        <mxPoint x="780" y="256" as="targetPoint"/>
                    </mxGeometry>
                </mxCell>
                <mxCell id="21" value="" style="endArrow=none;html=1;entryX=0.5;entryY=0.5;entryDx=0;entryDy=0;entryPerimeter=0;exitX=0.997;exitY=0.289;exitDx=0;exitDy=0;exitPerimeter=0;" parent="1" source="9" target="2" edge="1">
                    <mxGeometry width="50" height="50" relative="1" as="geometry">
                        <mxPoint x="600" y="326" as="sourcePoint"/>
                        <mxPoint x="650" y="276" as="targetPoint"/>
                    </mxGeometry>
                </mxCell>
                <mxCell id="22" value="" style="endArrow=none;html=1;entryX=0.5;entryY=0.5;entryDx=0;entryDy=0;entryPerimeter=0;exitX=0.924;exitY=0.8;exitDx=0;exitDy=0;exitPerimeter=0;" parent="1" source="12" target="2" edge="1">
                    <mxGeometry width="50" height="50" relative="1" as="geometry">
                        <mxPoint x="600" y="326" as="sourcePoint"/>
                        <mxPoint x="650" y="276" as="targetPoint"/>
                    </mxGeometry>
                </mxCell>
                <mxCell id="24" value="score calculation" style="ellipse;" parent="1" vertex="1">
                    <mxGeometry x="330" y="76" width="110" height="60" as="geometry"/>
                </mxCell>
                <mxCell id="25" value="tick speed" style="ellipse;" parent="1" vertex="1">
                    <mxGeometry x="310" y="297" width="110" height="60" as="geometry"/>
                </mxCell>
                <mxCell id="28" value="" style="endArrow=none;html=1;exitX=0.5;exitY=0.5;exitDx=0;exitDy=0;exitPerimeter=0;entryX=0;entryY=0.5;entryDx=0;entryDy=0;" parent="1" source="13" target="25" edge="1">
                    <mxGeometry width="50" height="50" relative="1" as="geometry">
                        <mxPoint x="540" y="366" as="sourcePoint"/>
                        <mxPoint x="590" y="316" as="targetPoint"/>
                    </mxGeometry>
                </mxCell>
                <mxCell id="30" value="resume game" style="ellipse;whiteSpace=wrap;html=1;" parent="1" vertex="1">
                    <mxGeometry x="553" y="116" width="95" height="50" as="geometry"/>
                </mxCell>
                <mxCell id="31" value="start game" style="ellipse;whiteSpace=wrap;html=1;" parent="1" vertex="1">
                    <mxGeometry x="555" y="177" width="90" height="50" as="geometry"/>
                </mxCell>
                <mxCell id="32" value="" style="endArrow=none;html=1;exitX=0.972;exitY=0.787;exitDx=0;exitDy=0;exitPerimeter=0;" parent="1" source="30" target="2" edge="1">
                    <mxGeometry width="50" height="50" relative="1" as="geometry">
                        <mxPoint x="640" y="146" as="sourcePoint"/>
                        <mxPoint x="690" y="96" as="targetPoint"/>
                    </mxGeometry>
                </mxCell>
                <mxCell id="33" value="" style="endArrow=none;html=1;exitX=0.931;exitY=0.76;exitDx=0;exitDy=0;exitPerimeter=0;entryX=0.5;entryY=0.5;entryDx=0;entryDy=0;entryPerimeter=0;" parent="1" source="31" target="2" edge="1">
                    <mxGeometry width="50" height="50" relative="1" as="geometry">
                        <mxPoint x="560" y="266" as="sourcePoint"/>
                        <mxPoint x="610" y="216" as="targetPoint"/>
                    </mxGeometry>
                </mxCell>
                <mxCell id="34" value="" style="endArrow=none;html=1;entryX=0.5;entryY=1;entryDx=0;entryDy=0;exitX=0.5;exitY=0;exitDx=0;exitDy=0;" parent="1" source="25" target="24" edge="1">
                    <mxGeometry width="50" height="50" relative="1" as="geometry">
                        <mxPoint x="360" y="356" as="sourcePoint"/>
                        <mxPoint x="410" y="306" as="targetPoint"/>
                    </mxGeometry>
                </mxCell>
                <mxCell id="35" value="control rocks" style="ellipse;" vertex="1" parent="1">
                    <mxGeometry x="410" y="146" width="110" height="60" as="geometry"/>
                </mxCell>
                <mxCell id="36" value="control aliens" style="ellipse;" vertex="1" parent="1">
                    <mxGeometry x="420" y="226" width="110" height="60" as="geometry"/>
                </mxCell>
                <mxCell id="37" value="deploy alien" style="ellipse;" vertex="1" parent="1">
                    <mxGeometry x="430" y="366" width="110" height="60" as="geometry"/>
                </mxCell>
                <mxCell id="38" value="throw rock" style="ellipse;" vertex="1" parent="1">
                    <mxGeometry x="370" y="436" width="110" height="60" as="geometry"/>
                </mxCell>
                <mxCell id="39" value="" style="endArrow=none;html=1;entryX=0.742;entryY=0.067;entryDx=0;entryDy=0;entryPerimeter=0;exitX=0;exitY=0.5;exitDx=0;exitDy=0;" edge="1" parent="1" source="35" target="25">
                    <mxGeometry width="50" height="50" relative="1" as="geometry">
                        <mxPoint x="480" y="356" as="sourcePoint"/>
                        <mxPoint x="530" y="316" as="targetPoint"/>
                    </mxGeometry>
                </mxCell>
                <mxCell id="41" value="" style="endArrow=none;html=1;entryX=0;entryY=1;entryDx=0;entryDy=0;" edge="1" parent="1" source="25" target="36">
                    <mxGeometry width="50" height="50" relative="1" as="geometry">
                        <mxPoint x="480" y="356" as="sourcePoint"/>
                        <mxPoint x="530" y="306" as="targetPoint"/>
                    </mxGeometry>
                </mxCell>
                <mxCell id="42" value="" style="endArrow=none;html=1;exitX=1;exitY=1;exitDx=0;exitDy=0;entryX=0;entryY=0;entryDx=0;entryDy=0;" edge="1" parent="1" source="25" target="37">
                    <mxGeometry width="50" height="50" relative="1" as="geometry">
                        <mxPoint x="480" y="356" as="sourcePoint"/>
                        <mxPoint x="530" y="306" as="targetPoint"/>
                    </mxGeometry>
                </mxCell>
                <mxCell id="44" value="" style="endArrow=none;html=1;exitX=0.5;exitY=1;exitDx=0;exitDy=0;entryX=0.5;entryY=0;entryDx=0;entryDy=0;" edge="1" parent="1" source="25" target="38">
                    <mxGeometry width="50" height="50" relative="1" as="geometry">
                        <mxPoint x="480" y="356" as="sourcePoint"/>
                        <mxPoint x="530" y="306" as="targetPoint"/>
                    </mxGeometry>
                </mxCell>
            </root>
        </mxGraphModel>
    </diagram>
</mxfile>